<svg width="800" height="400" viewBox="0 0 800 400" fill="none" xmlns="http://www.w3.org/2000/svg">
  <!-- Background gradient -->
  <rect width="800" height="400" rx="12" fill="url(#paint0_linear)" />
  
  <!-- Decorative patterns -->
  <path d="M700 0L800 100V0H700Z" fill="#a259ff" opacity="0.3" />
  <path d="M0 300L100 400H0V300Z" fill="#a259ff" opacity="0.3" />
  
  <!-- Abstract cyber pattern -->
  <g opacity="0.2">
    <path d="M600 50L650 100L700 50L750 100" stroke="#ff5e9f" stroke-width="2" />
    <path d="M600 100L650 150L700 100L750 150" stroke="#ff5e9f" stroke-width="2" />
    <path d="M600 150L650 200L700 150L750 200" stroke="#ff5e9f" stroke-width="2" />
    <path d="M600 200L650 250L700 200L750 250" stroke="#ff5e9f" stroke-width="2" />
    <path d="M600 250L650 300L700 250L750 300" stroke="#ff5e9f" stroke-width="2" />
    <path d="M600 300L650 350L700 300L750 350" stroke="#ff5e9f" stroke-width="2" />
  </g>
  
  <!-- Circles -->
  <circle cx="400" cy="200" r="120" stroke="#a259ff" stroke-width="2" stroke-opacity="0.3" fill="none" />
  <circle cx="400" cy="200" r="80" stroke="#a259ff" stroke-width="2" stroke-opacity="0.5" fill="none" />
  
  <!-- Text content -->
  <text x="80" y="150" fill="white" font-family="Arial" font-weight="bold" font-size="32">Secure and Verified</text>
  <text x="80" y="200" fill="#ff5e9f" font-family="Arial" font-weight="bold" font-size="42">STEAM ACCOUNTS</text>
  <text x="80" y="260" fill="white" font-family="Arial" font-size="20">Full Access • Original Email • Premium Games</text>

  <!-- CTA Button -->
  <rect x="80" y="290" width="200" height="50" rx="25" fill="#ff5e9f" />
  <text x="118" y="322" fill="white" font-family="Arial" font-weight="bold" font-size="18">VIEW OFFERS</text>
  
  <!-- Defs for gradients -->
  <defs>
    <linearGradient id="paint0_linear" x1="800" y1="0" x2="0" y2="400" gradientUnits="userSpaceOnUse">
      <stop offset="0" stop-color="#2c1a47" />
      <stop offset="1" stop-color="#0f0f1a" />
    </linearGradient>
  </defs>
</svg> 